<mxfile host="app.diagrams.net" modified="2024-04-01T19:31:06.574Z" agent="Mozilla/5.0 (Windows NT 10.0; Win64; x64) AppleWebKit/537.36 (KHTML, like Gecko) Chrome/123.0.0.0 Safari/537.36" etag="94BTAr-mzzCpDr2lHUQH" version="24.2.1" type="github">
  <diagram name="Page-1" id="vkK_K7VtiIeY42kuEKSg">
    <mxGraphModel dx="1566" dy="1069" grid="1" gridSize="10" guides="1" tooltips="1" connect="1" arrows="1" fold="1" page="1" pageScale="1" pageWidth="827" pageHeight="1169" math="0" shadow="0">
      <root>
        <mxCell id="0" />
        <mxCell id="1" parent="0" />
        <mxCell id="lWNDBMGzv_5UBkVeodQp-11" style="edgeStyle=orthogonalEdgeStyle;rounded=0;orthogonalLoop=1;jettySize=auto;html=1;entryX=1;entryY=1;entryDx=0;entryDy=0;curved=1;exitX=1.001;exitY=0.139;exitDx=0;exitDy=0;exitPerimeter=0;" parent="1" source="lWNDBMGzv_5UBkVeodQp-3" target="lWNDBMGzv_5UBkVeodQp-4" edge="1">
          <mxGeometry relative="1" as="geometry">
            <mxPoint x="460.38461538461524" y="470" as="targetPoint" />
            <Array as="points">
              <mxPoint x="449" y="90" />
              <mxPoint x="650" y="90" />
              <mxPoint x="650" y="480" />
            </Array>
          </mxGeometry>
        </mxCell>
        <mxCell id="lWNDBMGzv_5UBkVeodQp-14" style="edgeStyle=orthogonalEdgeStyle;curved=1;rounded=0;orthogonalLoop=1;jettySize=auto;html=1;exitX=1;exitY=0.25;exitDx=0;exitDy=0;entryX=1;entryY=0.5;entryDx=0;entryDy=0;" parent="1" source="lWNDBMGzv_5UBkVeodQp-3" target="lWNDBMGzv_5UBkVeodQp-4" edge="1">
          <mxGeometry relative="1" as="geometry">
            <Array as="points">
              <mxPoint x="560" y="100" />
              <mxPoint x="560" y="452" />
            </Array>
          </mxGeometry>
        </mxCell>
        <mxCell id="lWNDBMGzv_5UBkVeodQp-3" value="USER" style="whiteSpace=wrap;html=1;aspect=fixed;fillColor=#dae8fc;strokeColor=#000000;" parent="1" vertex="1">
          <mxGeometry x="369" y="80" width="80" height="80" as="geometry" />
        </mxCell>
        <mxCell id="lWNDBMGzv_5UBkVeodQp-17" style="edgeStyle=orthogonalEdgeStyle;curved=1;rounded=0;orthogonalLoop=1;jettySize=auto;html=1;exitX=0;exitY=0.5;exitDx=0;exitDy=0;" parent="1" source="lWNDBMGzv_5UBkVeodQp-4" edge="1">
          <mxGeometry relative="1" as="geometry">
            <mxPoint x="370" y="120" as="targetPoint" />
            <Array as="points">
              <mxPoint x="270" y="452" />
              <mxPoint x="270" y="120" />
            </Array>
          </mxGeometry>
        </mxCell>
        <mxCell id="lWNDBMGzv_5UBkVeodQp-21" style="edgeStyle=orthogonalEdgeStyle;curved=1;rounded=0;orthogonalLoop=1;jettySize=auto;html=1;exitX=0;exitY=0;exitDx=0;exitDy=0;entryX=0;entryY=0.75;entryDx=0;entryDy=0;" parent="1" source="lWNDBMGzv_5UBkVeodQp-4" target="lWNDBMGzv_5UBkVeodQp-3" edge="1">
          <mxGeometry relative="1" as="geometry">
            <Array as="points">
              <mxPoint x="350" y="424" />
              <mxPoint x="350" y="286" />
              <mxPoint x="349" y="286" />
              <mxPoint x="349" y="140" />
            </Array>
          </mxGeometry>
        </mxCell>
        <mxCell id="lWNDBMGzv_5UBkVeodQp-4" value="TESTLET" style="ellipse;whiteSpace=wrap;html=1;aspect=fixed;fillColor=#dae8fc;strokeColor=#000000;" parent="1" vertex="1">
          <mxGeometry x="369" y="412" width="80" height="80" as="geometry" />
        </mxCell>
        <mxCell id="lWNDBMGzv_5UBkVeodQp-12" value="Name" style="text;html=1;align=center;verticalAlign=middle;whiteSpace=wrap;rounded=0;" parent="1" vertex="1">
          <mxGeometry x="642" y="240" width="60" height="30" as="geometry" />
        </mxCell>
        <mxCell id="lWNDBMGzv_5UBkVeodQp-15" value="Subject Selection&lt;div&gt;+ Study Tool Selection (Quiz/&lt;/div&gt;&lt;div&gt;Content)&lt;/div&gt;" style="text;html=1;align=center;verticalAlign=middle;whiteSpace=wrap;rounded=0;" parent="1" vertex="1">
          <mxGeometry x="567" y="251" width="45" height="27" as="geometry" />
        </mxCell>
        <mxCell id="lWNDBMGzv_5UBkVeodQp-18" value="Content, Questions" style="text;html=1;align=center;verticalAlign=middle;whiteSpace=wrap;rounded=0;" parent="1" vertex="1">
          <mxGeometry x="199" y="265" width="60" height="30" as="geometry" />
        </mxCell>
        <mxCell id="lWNDBMGzv_5UBkVeodQp-19" style="edgeStyle=orthogonalEdgeStyle;curved=1;rounded=0;orthogonalLoop=1;jettySize=auto;html=1;exitX=1;exitY=0.5;exitDx=0;exitDy=0;entryX=0.919;entryY=0.224;entryDx=0;entryDy=0;entryPerimeter=0;" parent="1" source="lWNDBMGzv_5UBkVeodQp-3" target="lWNDBMGzv_5UBkVeodQp-4" edge="1">
          <mxGeometry relative="1" as="geometry">
            <Array as="points">
              <mxPoint x="469" y="120" />
              <mxPoint x="469" y="260" />
              <mxPoint x="470" y="260" />
              <mxPoint x="470" y="430" />
            </Array>
          </mxGeometry>
        </mxCell>
        <mxCell id="lWNDBMGzv_5UBkVeodQp-20" value="&lt;div style=&quot;text-align: center;&quot;&gt;&lt;span style=&quot;background-color: initial;&quot;&gt;Question Answers&lt;/span&gt;&lt;/div&gt;" style="text;whiteSpace=wrap;html=1;" parent="1" vertex="1">
          <mxGeometry x="476" y="270" width="60" height="40" as="geometry" />
        </mxCell>
        <mxCell id="lWNDBMGzv_5UBkVeodQp-22" value="&lt;span style=&quot;color: rgb(0, 0, 0); font-family: Helvetica; font-size: 12px; font-style: normal; font-variant-ligatures: normal; font-variant-caps: normal; font-weight: 400; letter-spacing: normal; orphans: 2; text-align: center; text-indent: 0px; text-transform: none; widows: 2; word-spacing: 0px; -webkit-text-stroke-width: 0px; white-space: normal; background-color: rgb(251, 251, 251); text-decoration-thickness: initial; text-decoration-style: initial; text-decoration-color: initial; display: inline !important; float: none;&quot;&gt;Time, Scores&lt;/span&gt;" style="text;whiteSpace=wrap;html=1;" parent="1" vertex="1">
          <mxGeometry x="302" y="256" width="40" height="40" as="geometry" />
        </mxCell>
      </root>
    </mxGraphModel>
  </diagram>
</mxfile>
